<svg width="50" height="50" viewBox="0 0 50 50" fill="none" xmlns="http://www.w3.org/2000/svg">
<path d="M28 13.5C28 14.8807 26.8807 16 25.5 16C24.1193 16 23 14.8807 23 13.5C23 12.1193 24.1193 11 25.5 11C26.8807 11 28 12.1193 28 13.5Z" fill="#D9D9D9"/>
<path d="M28 38.5C28 39.8807 26.8807 41 25.5 41C24.1193 41 23 39.8807 23 38.5C23 37.1193 24.1193 36 25.5 36C26.8807 36 28 37.1193 28 38.5Z" fill="#D9D9D9"/>
<path d="M17 20.5C17 21.8807 15.8807 23 14.5 23C13.1193 23 12 21.8807 12 20.5C12 19.1193 13.1193 18 14.5 18C15.8807 18 17 19.1193 17 20.5Z" fill="#D9D9D9"/>
<path d="M17 31.5C17 32.8807 15.8807 34 14.5 34C13.1193 34 12 32.8807 12 31.5C12 30.1193 13.1193 29 14.5 29C15.8807 29 17 30.1193 17 31.5Z" fill="#D9D9D9"/>
<path d="M38 20.5C38 21.8807 36.8807 23 35.5 23C34.1193 23 33 21.8807 33 20.5C33 19.1193 34.1193 18 35.5 18C36.8807 18 38 19.1193 38 20.5Z" fill="#D9D9D9"/>
<path d="M38 31.5C38 32.8807 36.8807 34 35.5 34C34.1193 34 33 32.8807 33 31.5C33 30.1193 34.1193 29 35.5 29C36.8807 29 38 30.1193 38 31.5Z" fill="#D9D9D9"/>
</svg>
