<svg width="50" height="47" viewBox="0 0 50 47" fill="none" xmlns="http://www.w3.org/2000/svg">
<path d="M28 10.5C28 11.8807 26.8807 13 25.5 13C24.1193 13 23 11.8807 23 10.5C23 9.11929 24.1193 8 25.5 8C26.8807 8 28 9.11929 28 10.5Z" fill="black"/>
<path d="M28 35.5C28 36.8807 26.8807 38 25.5 38C24.1193 38 23 36.8807 23 35.5C23 34.1193 24.1193 33 25.5 33C26.8807 33 28 34.1193 28 35.5Z" fill="black"/>
<path d="M17 17.5C17 18.8807 15.8807 20 14.5 20C13.1193 20 12 18.8807 12 17.5C12 16.1193 13.1193 15 14.5 15C15.8807 15 17 16.1193 17 17.5Z" fill="black"/>
<path d="M17 28.5C17 29.8807 15.8807 31 14.5 31C13.1193 31 12 29.8807 12 28.5C12 27.1193 13.1193 26 14.5 26C15.8807 26 17 27.1193 17 28.5Z" fill="black"/>
<path d="M38 17.5C38 18.8807 36.8807 20 35.5 20C34.1193 20 33 18.8807 33 17.5C33 16.1193 34.1193 15 35.5 15C36.8807 15 38 16.1193 38 17.5Z" fill="black"/>
<path d="M38 28.5C38 29.8807 36.8807 31 35.5 31C34.1193 31 33 29.8807 33 28.5C33 27.1193 34.1193 26 35.5 26C36.8807 26 38 27.1193 38 28.5Z" fill="black"/>
</svg>
